<?xml version="1.0" encoding="UTF-8" standalone="no"?>
<!-- Created with Inkscape (http://www.inkscape.org/) -->

<svg
   width="210mm"
   height="297mm"
   viewBox="0 0 210 297"
   version="1.1"
   id="svg1"
   xml:space="preserve"
   xmlns="http://www.w3.org/2000/svg"
   xmlns:svg="http://www.w3.org/2000/svg"><defs
     id="defs1" /><g
     id="layer1"><g
       id="g10"
       transform="translate(-2.4539998,13.43242)"><path
         style="fill:#fefefe"
         d="M 55.010033,123.3247 V 90.251907 h 46.776757 46.77676 V 123.3247 156.39749 H 101.78679 55.010033 Z m 66.849147,19.01477 c 0.80022,-0.58419 1.4561,-1.0809 1.45752,-1.10381 0.003,-0.0422 -3.22199,-2.37425 -3.28301,-2.37425 -0.077,0 -2.96011,2.161 -2.96011,2.21872 0,0.0872 3.09882,2.31226 3.22733,2.31738 0.0568,0.002 0.75805,-0.47385 1.55827,-1.05804 z m -35.26649,-0.11561 c 0.819573,-0.60196 1.489412,-1.11742 1.488529,-1.14547 -0.0028,-0.0905 -3.112986,-2.29083 -3.244865,-2.29564 -0.159637,-0.006 -2.998619,2.05081 -2.97158,2.15269 0.01611,0.0607 3.105088,2.34778 3.207567,2.37489 0.01662,0.004 0.700775,-0.48451 1.520349,-1.08647 z m 29.48115,-3.7165 c -3e-5,-2.05039 -0.0249,-6.56176 -0.0552,-10.02527 l -0.0552,-6.29729 -3.24727,-0.0568 c -1.786,-0.0313 -3.25811,-0.046 -3.27135,-0.0328 -0.0194,0.0193 -0.28612,18.50575 -0.28553,19.78608 l 1.7e-4,0.35406 h 3.45723 3.45723 z m -13.40096,3.41558 c 0.0244,-0.18485 -0.14111,-15.98544 -0.16976,-16.20317 -0.005,-0.0344 -0.0752,-0.0625 -0.15703,-0.0625 -0.13059,0 -0.19173,0.27671 -0.49966,2.26133 -0.35074,2.26055 -0.35099,2.26158 -0.73028,2.95739 -0.20868,0.38284 -0.38683,0.69558 -0.39589,0.695 -0.009,-5.9e-4 -0.93441,-0.20415 -2.056349,-0.45237 -1.121939,-0.24822 -2.054758,-0.43644 -2.07293,-0.41827 -0.01817,0.0182 0.04756,2.51788 0.146077,5.55491 0.09851,3.03703 0.17848,5.60622 0.177701,5.70931 l -0.0014,0.18744 h 2.864629 2.864632 z m -10.336332,-0.56605 0.391282,-0.28723 0.0559,-1.18743 c 0.03074,-0.65309 0.09292,-1.97468 0.138183,-2.93687 0.04526,-0.9622 0.116373,-3.00529 0.158032,-4.54022 0.04166,-1.53493 0.101597,-3.13086 0.133193,-3.54651 l 0.05745,-0.75573 2.800235,1.15712 c 1.54013,0.63642 3.002469,1.19097 3.249644,1.23234 0.533172,0.0892 0.807363,-0.0326 1.134013,-0.50397 0.24586,-0.35477 0.32074,-0.72097 0.49387,-2.41504 0.0726,-0.7102 0.14988,-1.38498 0.17179,-1.49953 0.0338,-0.17669 -0.0326,-0.26003 -0.43818,-0.54979 -0.26289,-0.18784 -0.845996,-0.55945 -1.295778,-0.82581 -0.813098,-0.48152 -1.065736,-0.72358 -1.633839,-1.56548 -0.325344,-0.48214 -0.479145,-0.93061 -0.294904,-0.85991 0.06613,0.0254 0.429987,0.13681 0.808579,0.24762 2.036982,0.59623 2.379422,0.64549 3.225732,0.46398 0.63667,-0.13654 0.98191,-0.56297 1.41804,-1.75153 l 0.17148,-0.46731 0.48287,-0.0505 c 0.74648,-0.078 1.10765,-0.22787 1.32395,-0.54929 0.26871,-0.39931 0.20239,-0.58571 -0.57276,-1.60984 -0.25879,-0.3419 -0.53638,-0.74901 -0.61688,-0.90468 -0.0805,-0.15568 -0.21854,-0.38066 -0.30674,-0.49997 -0.0882,-0.1193 -0.24626,-0.51293 -0.35122,-0.87472 -0.10496,-0.36179 -0.30776,-1.05427 -0.45066,-1.53885 -0.38875,-1.31824 -0.75609,-3.19948 -0.92596,-4.74216 -0.0833,-0.756 -0.23293,-1.70804 -0.33262,-2.11562 l -0.18126,-0.74106 0.44336,-0.45245 c 0.24386,-0.24885 0.77246,-0.71617 1.17468,-1.03849 0.40223,-0.32232 0.84978,-0.75992 0.99457,-0.97246 0.1448,-0.21254 0.4959,-0.6301 0.78025,-0.92792 1.31857,-1.38108 3.05733,-4.62871 3.17359,-5.927573 l 0.0496,-0.554282 -0.25719,-0.132999 c -0.41808,-0.2162 -0.63339,-0.17488 -0.74857,0.143662 -0.055,0.152164 -0.10004,0.394668 -0.10004,0.538897 0,0.459639 -1.13343,2.061044 -2.28968,3.235055 -0.56023,0.56883 -1.1704,0.94989 -2.22749,1.39111 l -0.31018,0.12947 0.21835,-0.34887 c 0.12009,-0.19188 0.70016,-0.84635 1.28904,-1.45437 0.91064,-0.940251 1.12515,-1.214211 1.43503,-1.832753 0.34614,-0.690948 0.62742,-1.75066 0.53681,-2.022482 -0.0229,-0.06879 -0.1372,0.03273 -0.295,0.262091 -0.14166,0.205902 -0.46993,0.578823 -0.72949,0.828713 -0.25955,0.249891 -0.85445,0.833972 -1.32199,1.297959 -0.67756,0.67241 -0.98488,0.910892 -1.51431,1.175142 -0.36532,0.18234 -0.82267,0.35597 -1.01633,0.38583 l -0.3521,0.0543 0.0508,-0.27142 c 0.0279,-0.14928 0.18824,-0.45886 0.35627,-0.687953 0.44793,-0.610671 0.81985,-1.309291 0.93008,-1.747051 0.0869,-0.34527 0.0808,-0.396883 -0.0597,-0.503308 -0.34961,-0.264712 -0.56513,-0.163281 -1.945086,0.915394 -1.067817,0.834688 -1.555686,1.152562 -2.478278,1.614738 -1.116674,0.5594 -1.177876,0.57922 -2.193345,0.71016 -0.65102,0.084 -1.659754,0.13471 -2.677208,0.13471 -2.326049,0 -2.928792,0.13143 -4.203767,0.91667 l -0.945146,0.58209 -0.968329,0.0849 -0.968328,0.0849 -0.635779,0.44322 c -0.349679,0.24377 -0.954427,0.63452 -1.343887,0.86834 -0.511347,0.30699 -1.090504,0.79114 -2.08429,1.74238 -1.279186,1.22442 -1.434787,1.34568 -2.20763,1.72054 -0.61031,0.29602 -0.889776,0.48362 -1.050756,0.70538 l -0.21931,0.30211 0.215837,0.44008 0.215838,0.44009 h 0.713425 c 0.675467,0 0.730159,-0.0138 1.027901,-0.25922 l 0.314475,-0.25922 -0.05777,0.23839 c -0.06575,0.27133 -0.686307,1.26903 -1.043905,1.67833 -0.185295,0.21209 -0.239078,0.35584 -0.239078,0.63901 0,0.34549 0.01473,0.36833 0.270747,0.41986 0.510864,0.10282 0.57728,0.14181 0.687304,0.40348 0.0932,0.22165 0.09115,0.30741 -0.01324,0.55437 -0.134821,0.31894 -0.273262,1.78744 -0.276382,2.93169 -0.0024,0.87032 0.141552,1.59849 0.5257,2.65971 0.158055,0.43664 0.332266,1.01617 0.387135,1.28786 0.158416,0.78438 1.04877,2.3254 1.916424,3.31691 0.298344,0.34094 0.51801,0.74342 0.898671,1.64657 0.725719,1.72185 0.833949,2.31557 0.88524,4.85614 0.06384,3.16199 -0.141587,4.91798 -0.853459,7.29552 -0.379709,1.26817 -0.613155,2.49773 -0.474222,2.49773 0.03185,0 0.326749,-0.21755 0.655332,-0.48345 1.20431,-0.97456 1.637998,-1.27629 1.742928,-1.21259 0.05725,0.0348 0.441492,0.32475 0.85386,0.64442 1.053224,0.81647 2.047722,1.74336 2.874084,2.67869 l 0.708108,0.80149 1.285594,-0.052 1.285593,-0.052 z m 29.360562,-20.01562 c 2.15348,-0.62845 3.90111,-1.17966 3.88361,-1.22491 -0.04,-0.10362 -17.82699,-19.31981 -17.90504,-19.34378 -0.0316,-0.01 -0.15943,0.0658 -0.28411,0.16783 -0.19451,0.15913 -0.23408,0.26806 -0.2788,0.76739 -0.0487,0.54348 -0.0319,0.62873 0.2532,1.29004 0.77445,1.79615 8.73098,19.05836 8.86566,19.23465 0.12087,0.1582 0.26129,0.21098 0.68445,0.25722 0.29281,0.032 0.60736,0.0438 0.699,0.0262 0.0916,-0.0176 1.92855,-0.54618 4.08203,-1.17463 z m -13.30287,1.07192 c 0.4726,-0.0392 0.88114,-0.093 0.90786,-0.11975 0.0267,-0.0267 -0.0833,-0.33982 -0.24451,-0.69578 -0.16119,-0.35596 -0.33463,-0.77841 -0.38542,-0.93878 -0.0508,-0.16036 -0.8057,-3.77796 -1.67758,-8.0391 -0.87189,-4.26114 -1.59433,-7.77411 -1.60543,-7.8066 -0.0111,-0.0325 -0.34412,0.16386 -0.74005,0.43633 l -0.71988,0.4954 -0.0499,0.81327 c -0.0274,0.4473 -0.0926,2.63144 -0.1449,4.85365 -0.0871,3.70417 -0.0834,4.07952 0.0442,4.51079 0.10384,0.35081 0.36729,0.77445 1.03614,1.66614 0.49329,0.65765 0.96036,1.3558 1.03792,1.55146 0.21016,0.53011 0.19287,1.5136 -0.0316,1.799 -0.11472,0.14585 -0.25272,0.2195 -0.41126,0.2195 -0.43067,0 -1.61988,0.32543 -1.72784,0.47282 -0.13266,0.18112 -0.13363,0.4155 -0.002,0.49682 0.20053,0.12394 2.03835,0.34225 2.9386,0.34907 0.50401,0.004 1.30305,-0.0251 1.77566,-0.0642 z"
         id="path17" /><path
         style="fill:#fed0d0"
         d="m 89.238493,141.58971 c -0.103623,-0.13213 -0.100677,-0.13507 0.03145,-0.0315 0.08018,0.0629 0.145787,0.12849 0.145787,0.14579 0,0.0686 -0.06841,0.0244 -0.177239,-0.11434 z m 1.365946,0.0881 c 0.08106,-0.0211 0.193519,-0.0197 0.249921,0.003 0.0564,0.0228 -0.0099,0.0401 -0.147373,0.0384 -0.137456,-0.002 -0.183602,-0.0204 -0.102548,-0.0415 z m -2.282321,-1.08774 c -0.103623,-0.13213 -0.100676,-0.13508 0.03145,-0.0315 0.08018,0.0629 0.145787,0.12848 0.145787,0.14578 0,0.0686 -0.06841,0.0244 -0.17724,-0.11433 z m 8.524158,-0.39571 c 0.0017,-0.13745 0.02037,-0.1836 0.04149,-0.10255 0.02112,0.0811 0.01973,0.19352 -0.0031,0.24992 -0.02282,0.0564 -0.0401,-0.01 -0.0384,-0.14737 z m -4.091696,-0.50678 c 0.004,-0.0971 0.02374,-0.11679 0.05033,-0.0503 0.02406,0.0601 0.02111,0.13199 -0.0066,0.15967 -0.02768,0.0277 -0.04737,-0.0215 -0.04375,-0.10934 z m 16.43152,-0.45125 c 0,-0.29782 0.0151,-0.41965 0.0336,-0.27074 0.0185,0.14891 0.0185,0.39258 0,0.54149 -0.0185,0.14891 -0.0336,0.0271 -0.0336,-0.27075 z m -22.030277,0.18744 c -0.103623,-0.13212 -0.100676,-0.13507 0.03145,-0.0315 0.138768,0.10883 0.182898,0.17724 0.114334,0.17724 -0.0173,0 -0.0829,-0.0656 -0.145787,-0.14579 z m 5.688641,-1.68696 c 0,-0.11454 0.01891,-0.1614 0.04202,-0.10413 0.02311,0.0573 0.02311,0.15099 0,0.20827 -0.02311,0.0573 -0.04202,0.0104 -0.04202,-0.10414 z m 3.918505,-0.12496 c 0.0017,-0.13745 0.02037,-0.1836 0.04149,-0.10255 0.02112,0.0811 0.01973,0.19352 -0.0031,0.24992 -0.02282,0.0564 -0.0401,-0.01 -0.0384,-0.14737 z m 5.843241,-2.70747 c 0,-0.34364 0.0147,-0.48422 0.0327,-0.3124 0.018,0.17182 0.018,0.45298 0,0.6248 -0.018,0.17182 -0.0327,0.0312 -0.0327,-0.3124 z m -5.926547,0.12496 c 0.0017,-0.13745 0.02037,-0.1836 0.04149,-0.10255 0.02112,0.0811 0.01973,0.19352 -0.0031,0.24992 -0.02282,0.0564 -0.0401,-0.01 -0.0384,-0.14737 z m -3.675162,-0.67339 c 0.004,-0.097 0.02374,-0.11679 0.05033,-0.0503 0.02406,0.0601 0.0211,0.13199 -0.0066,0.15968 -0.02768,0.0277 -0.04737,-0.0215 -0.04375,-0.10934 z m 23.021589,-1.99242 c 7e-5,-1.00802 0.0121,-1.40894 0.0267,-0.89094 0.0146,0.518 0.0146,1.34274 -1.2e-4,1.83275 -0.0147,0.49002 -0.0267,0.0662 -0.0266,-0.94181 z m -6.75668,0.37488 c 0,-0.29783 0.0151,-0.41966 0.0336,-0.27075 0.0185,0.14891 0.0185,0.39258 0,0.54149 -0.0185,0.14891 -0.0336,0.0271 -0.0336,-0.27074 z m -12.673054,-0.29158 c 0.0017,-0.13745 0.02037,-0.1836 0.04149,-0.10255 0.02112,0.0811 0.01973,0.19352 -0.0031,0.24992 -0.02282,0.0564 -0.0401,-0.01 -0.0384,-0.14737 z m 3.05049,-1.93131 c 0.06014,-0.0241 0.131989,-0.0211 0.159671,0.007 0.02768,0.0277 -0.02152,0.0474 -0.10934,0.0437 -0.09705,-0.004 -0.116787,-0.0237 -0.05033,-0.0503 z m -15.783559,-0.77616 c 0,-0.38946 0.01435,-0.54878 0.03189,-0.35405 0.01754,0.19473 0.01754,0.51338 0,0.70811 -0.01754,0.19472 -0.03189,0.0354 -0.03189,-0.35406 z m 9.231097,0.41654 c 0,-0.11455 0.01891,-0.16141 0.04202,-0.10414 0.02311,0.0573 0.02311,0.151 0,0.20827 -0.02311,0.0573 -0.04202,0.0104 -0.04202,-0.10413 z m 9.428516,-2.49921 c 0,-0.34364 0.0147,-0.48422 0.0327,-0.3124 0.018,0.17182 0.018,0.45298 0,0.6248 -0.018,0.17182 -0.0327,0.0312 -0.0327,-0.3124 z m 6.82982,-1.41621 c 0,-0.29783 0.0151,-0.41966 0.0336,-0.27075 0.0185,0.14891 0.0185,0.39258 0,0.54149 -0.0185,0.14891 -0.0336,0.0271 -0.0336,-0.27074 z m -27.272469,-3.22814 -0.287089,-0.3124 0.3124,0.28709 c 0.171821,0.1579 0.312401,0.29848 0.312401,0.3124 0,0.0636 -0.0705,0.004 -0.337712,-0.28709 z m 25.060489,-0.58104 c 0.14973,-0.0185 0.37466,-0.0182 0.49984,8.5e-4 0.12518,0.019 0.003,0.0342 -0.27224,0.0337 -0.27491,-4.7e-4 -0.37733,-0.016 -0.2276,-0.0346 z m 4.16385,-0.33165 c 0.10309,-0.0199 0.27179,-0.0199 0.37488,0 0.10309,0.0199 0.0187,0.0361 -0.18744,0.0361 -0.20619,0 -0.29053,-0.0162 -0.18744,-0.0361 z m 13.25598,-3.08604 c -0.10363,-0.13213 -0.10068,-0.13507 0.0315,-0.0315 0.13877,0.10883 0.1829,0.17724 0.11433,0.17724 -0.0173,0 -0.0829,-0.0656 -0.14578,-0.14579 z m -1.03863,-1.12464 -0.1587,-0.18744 0.18744,0.1587 c 0.1031,0.0873 0.18745,0.17163 0.18745,0.18744 0,0.0667 -0.067,0.0174 -0.21619,-0.1587 z m -1.04404,-1.12464 c -0.10363,-0.13213 -0.10068,-0.13508 0.0314,-0.0315 0.0802,0.0629 0.14579,0.12849 0.14579,0.14578 0,0.0686 -0.0684,0.0244 -0.17724,-0.11433 z m -1.03863,-1.12464 -0.15869,-0.18744 0.18744,0.1587 c 0.17614,0.14913 0.22536,0.21618 0.15869,0.21618 -0.0158,0 -0.10015,-0.0844 -0.18744,-0.18744 z m -42.173811,-0.81224 c 0,-0.11455 0.01891,-0.16141 0.04202,-0.10414 0.02311,0.0573 0.02311,0.151 0,0.20827 -0.02311,0.0573 -0.04202,0.0104 -0.04202,-0.10413 z m 41.090831,-0.35406 -0.1587,-0.18744 0.18744,0.1587 c 0.17614,0.14914 0.22536,0.21618 0.1587,0.21618 -0.0158,0 -0.10016,-0.0843 -0.18744,-0.18744 z m -0.99969,-1.08298 -0.15869,-0.18744 0.18744,0.15869 c 0.10309,0.0873 0.18744,0.17164 0.18744,0.18744 0,0.0667 -0.067,0.0174 -0.21619,-0.15869 z m -15.67608,-0.39571 c 0,-0.16037 0.0171,-0.22597 0.0381,-0.14579 0.0209,0.0802 0.0209,0.21139 0,0.29158 -0.021,0.0802 -0.0381,0.0146 -0.0381,-0.14579 z m 14.5931,-0.77059 -0.1587,-0.18744 0.18744,0.1587 c 0.10309,0.0873 0.18744,0.17163 0.18744,0.18744 0,0.0667 -0.0671,0.0175 -0.21618,-0.1587 z m -0.99969,-1.08299 -0.15869,-0.18744 0.18744,0.1587 c 0.10309,0.0873 0.18744,0.17163 0.18744,0.18744 0,0.0667 -0.0671,0.0174 -0.21619,-0.1587 z m -13.5101,-1.22877 c 0,-0.16037 0.0171,-0.22597 0.0381,-0.14579 0.021,0.0802 0.021,0.21139 0,0.29157 -0.0209,0.0802 -0.0381,0.0146 -0.0381,-0.14578 z m 12.42712,0.0625 -0.1587,-0.18744 0.18744,0.1587 c 0.10309,0.0873 0.18744,0.17163 0.18744,0.18744 0,0.0667 -0.067,0.0175 -0.21618,-0.1587 z m -0.99968,-1.08299 -0.1587,-0.18744 0.18744,0.1587 c 0.17614,0.14914 0.22536,0.21618 0.1587,0.21618 -0.0158,0 -0.10016,-0.0844 -0.18744,-0.18744 z m -1.08299,-1.1663 -0.1587,-0.18744 0.18744,0.1587 c 0.17615,0.14914 0.22536,0.21618 0.1587,0.21618 -0.0158,0 -0.10016,-0.0843 -0.18744,-0.18744 z m -10.26423,-0.9372 c 0.002,-0.13745 0.0204,-0.1836 0.0415,-0.10254 0.0211,0.0811 0.0197,0.19351 -0.003,0.24992 -0.0228,0.0564 -0.0401,-0.01 -0.0384,-0.14738 z m 9.26455,-0.14578 -0.1587,-0.18744 0.18744,0.15869 c 0.10309,0.0873 0.18744,0.17164 0.18744,0.18744 0,0.0667 -0.0671,0.0174 -0.21618,-0.15869 z m -11.53008,-0.0106 c 0,-0.0173 0.0656,-0.0829 0.14579,-0.14579 0.13213,-0.10362 0.13507,-0.10067 0.0314,0.0315 -0.10883,0.13876 -0.17724,0.18289 -0.17724,0.11433 z m 10.44709,-1.15567 -0.1587,-0.18744 0.18744,0.1587 c 0.17615,0.14914 0.22536,0.21618 0.1587,0.21618 -0.0158,0 -0.10016,-0.0843 -0.18744,-0.18744 z m -30.773942,-0.0106 c 0,-0.0173 0.0656,-0.0829 0.145787,-0.14579 0.132129,-0.10362 0.135076,-0.10068 0.03145,0.0314 -0.10883,0.13877 -0.17724,0.1829 -0.17724,0.11434 z m 0.916375,-0.83307 c 0,-0.0173 0.0656,-0.0829 0.145786,-0.14579 0.13213,-0.10362 0.135076,-0.10068 0.03145,0.0315 -0.108829,0.13877 -0.177239,0.1829 -0.177239,0.11434 z m 28.857887,-0.2393 -0.1587,-0.18744 0.18744,0.1587 c 0.17615,0.14914 0.22536,0.21618 0.1587,0.21618 -0.0158,0 -0.10016,-0.0843 -0.18744,-0.18744 z m -1.08299,-1.16629 -0.1587,-0.18744 0.18744,0.1587 c 0.17615,0.14913 0.22536,0.21618 0.1587,0.21618 -0.0158,0 -0.10016,-0.0844 -0.18744,-0.18744 z m -24.458246,-0.53592 c 0.06014,-0.0241 0.131989,-0.0211 0.159671,0.007 0.02768,0.0277 -0.02152,0.0474 -0.10934,0.0438 -0.09705,-0.004 -0.116788,-0.0237 -0.05033,-0.0503 z m 23.458566,-0.54707 -0.1587,-0.18744 0.18744,0.1587 c 0.17615,0.14914 0.22536,0.21618 0.1587,0.21618 -0.0158,0 -0.10016,-0.0844 -0.18744,-0.18744 z m -1.85025,-0.35405 c 0.002,-0.13746 0.0204,-0.18361 0.0415,-0.10255 0.0211,0.0811 0.0197,0.19352 -0.003,0.24992 -0.0228,0.0564 -0.0401,-0.01 -0.0384,-0.14737 z m -16.027537,-0.68699 c 0.472079,-0.0149 1.22184,-0.0148 1.666135,1.3e-4 0.444295,0.015 0.05805,0.0271 -0.858326,0.0271 -0.916374,-7e-5 -1.279889,-0.0123 -0.807809,-0.0272 z m 16.794797,-0.12525 -0.1587,-0.18744 0.18744,0.15869 c 0.17615,0.14914 0.22537,0.21619 0.1587,0.21619 -0.0158,0 -0.10016,-0.0844 -0.18744,-0.18744 z m -3.11609,-0.34386 c 0,-0.0173 0.0656,-0.0829 0.14579,-0.14578 0.13213,-0.10363 0.13507,-0.10068 0.0314,0.0314 -0.10883,0.13877 -0.17724,0.1829 -0.17724,0.11433 z m -2.66582,-0.49984 c 0,-0.0173 0.0656,-0.0829 0.14579,-0.145785 0.13213,-0.103623 0.13508,-0.100677 0.0315,0.03144 -0.10883,0.13877 -0.17724,0.1829 -0.17724,0.11433 z m 1.45787,-1.468068 c 0.0829,-0.09164 0.16953,-0.166613 0.19244,-0.166613 0.0229,0 -0.0262,0.07498 -0.10913,0.166613 -0.0829,0.09164 -0.16953,0.166614 -0.19244,0.166614 -0.0229,0 0.0262,-0.07498 0.10913,-0.166614 z m 1.71437,-1.381504 c 0.004,-0.09705 0.0237,-0.116788 0.0503,-0.05033 0.0241,0.06014 0.0211,0.131989 -0.007,0.159671 -0.0277,0.02768 -0.0474,-0.02152 -0.0437,-0.10934 z"
         id="path16" /><path
         style="fill:#feafaf"
         d="m 90.227973,141.68033 c 0.05727,-0.0231 0.150994,-0.0231 0.208267,0 0.05727,0.0231 0.01041,0.042 -0.104133,0.042 -0.114547,0 -0.161407,-0.0189 -0.104134,-0.042 z m 18.956427,-1.52766 c 0,-0.252 0.0156,-0.3551 0.0347,-0.22909 0.0191,0.126 0.0191,0.33218 0,0.45818 -0.0191,0.126 -0.0347,0.0229 -0.0347,-0.22909 z m -12.341211,-0.33323 c 0,-0.11454 0.01891,-0.1614 0.04202,-0.10413 0.02311,0.0573 0.02311,0.15099 0,0.20827 -0.02311,0.0573 -0.04202,0.0104 -0.04202,-0.10414 z m -3.998725,-2.41589 c 0,-0.11455 0.01891,-0.16141 0.04202,-0.10414 0.02311,0.0573 0.02311,0.151 0,0.20827 -0.02311,0.0573 -0.04202,0.0104 -0.04202,-0.10413 z m 3.915419,-0.16662 c 0,-0.11454 0.01891,-0.16141 0.04202,-0.10413 0.02311,0.0573 0.02311,0.15099 0,0.20827 -0.02311,0.0573 -0.04202,0.0104 -0.04202,-0.10414 z m 19.265137,-1.62448 c 8e-5,-0.82474 0.0126,-1.15086 0.0277,-0.72472 0.0152,0.42614 0.0151,1.10092 -1.6e-4,1.49952 -0.0152,0.3986 -0.0276,0.0499 -0.0275,-0.7748 z m -13.421,0.33323 c 4.7e-4,-0.27492 0.016,-0.37734 0.0346,-0.2276 0.0185,0.14973 0.0182,0.37465 -8.5e-4,0.49984 -0.019,0.12518 -0.0342,0.003 -0.0337,-0.27224 z m -5.927444,-1.29126 c 0,-0.11455 0.01891,-0.16141 0.04202,-0.10413 0.02311,0.0573 0.02311,0.15099 0,0.20827 -0.02311,0.0573 -0.04202,0.0104 -0.04202,-0.10414 z m 12.591134,-0.99968 c 0,-0.252 0.0156,-0.35509 0.0347,-0.22909 0.0191,0.126 0.0191,0.33218 0,0.45818 -0.0191,0.12601 -0.0347,0.0229 -0.0347,-0.22909 z m -12.674441,-1.58283 c 0,-0.11455 0.01891,-0.16141 0.04202,-0.10413 0.02311,0.0573 0.02311,0.15099 0,0.20826 -0.02311,0.0573 -0.04202,0.0104 -0.04202,-0.10413 z m 5.927441,-3.37392 c 4.7e-4,-0.27492 0.016,-0.37734 0.0346,-0.2276 0.0185,0.14973 0.0182,0.37465 -8.5e-4,0.49984 -0.019,0.12518 -0.0342,0.003 -0.0337,-0.27224 z m -18.659196,-0.16662 c 3.7e-4,-0.32073 0.01543,-0.44173 0.03346,-0.26889 0.01803,0.17285 0.01773,0.43526 -6.72e-4,0.58315 -0.0184,0.14789 -0.03316,0.006 -0.03279,-0.31426 z m 25.489506,-1.37456 c 0,-0.252 0.0156,-0.35509 0.0347,-0.22909 0.0191,0.126 0.0191,0.33218 0,0.45818 -0.0191,0.12601 -0.0347,0.0229 -0.0347,-0.22909 z m -3.08649,-4.72485 c 0.126,-0.0191 0.33218,-0.0191 0.45819,0 0.126,0.0191 0.0229,0.0347 -0.2291,0.0347 -0.252,0 -0.35509,-0.0156 -0.22909,-0.0347 z m 9.24705,-0.24767 c 0.0802,-0.021 0.21139,-0.021 0.29157,0 0.0802,0.0209 0.0146,0.0381 -0.14578,0.0381 -0.16037,0 -0.22597,-0.0171 -0.14579,-0.0381 z m -4.87345,-0.0847 c 0.1031,-0.0199 0.27179,-0.0199 0.37488,0 0.1031,0.0199 0.0188,0.0361 -0.18744,0.0361 -0.20618,0 -0.29053,-0.0162 -0.18744,-0.0361 z m -31.372671,-6.93898 c 0,-0.11454 0.01891,-0.1614 0.04202,-0.10413 0.02311,0.0573 0.02311,0.15099 0,0.20827 -0.02311,0.0573 -0.04202,0.0104 -0.04202,-0.10414 z m 24.411971,-1.70778 c 0.002,-0.13746 0.0204,-0.18361 0.0415,-0.10255 0.0211,0.081 0.0197,0.19352 -0.003,0.24992 -0.0228,0.0564 -0.0401,-0.01 -0.0384,-0.14737 z m 0.0833,-3.08236 c 0.002,-0.13745 0.0204,-0.1836 0.0415,-0.10254 0.0211,0.0811 0.0197,0.19352 -0.003,0.24992 -0.0228,0.0564 -0.0401,-0.01 -0.0384,-0.14738 z m 0.0833,-3.16565 c 0.002,-0.13746 0.0204,-0.18361 0.0415,-0.10255 0.0211,0.0811 0.0197,0.19352 -0.003,0.24992 -0.0228,0.0564 -0.0401,-0.01 -0.0384,-0.14737 z m 0.60856,-3.45723 c 0.0829,-0.0916 0.16952,-0.16662 0.19243,-0.16662 0.0229,0 -0.0262,0.075 -0.10913,0.16662 -0.0829,0.0916 -0.16952,0.16661 -0.19243,0.16661 -0.0229,0 0.0262,-0.075 0.10913,-0.16661 z m 2.6404,-1.54118 c 0.002,-0.13746 0.0204,-0.1836 0.0415,-0.10255 0.0211,0.0811 0.0197,0.19352 -0.003,0.24992 -0.0228,0.0564 -0.0401,-0.01 -0.0384,-0.14737 z m -4.38985,-0.87472 c 0.0829,-0.0916 0.16953,-0.16661 0.19244,-0.16661 0.0229,0 -0.0262,0.075 -0.10913,0.16661 -0.0829,0.0916 -0.16953,0.16661 -0.19244,0.16661 -0.0229,0 0.0262,-0.075 0.10913,-0.16661 z m 0.95803,-0.94783 c 0,-0.0173 0.0656,-0.0829 0.14579,-0.14579 0.13213,-0.10362 0.13507,-0.10067 0.0315,0.0315 -0.10883,0.13877 -0.17724,0.1829 -0.17724,0.11433 z"
         id="path15" /><path
         style="fill:#fe8e8e"
         d="m 109.92581,142.17337 c 0.3986,-0.0152 1.07338,-0.0153 1.49952,-1.6e-4 0.42615,0.0151 0.10002,0.0276 -0.72472,0.0277 -0.82473,9e-5 -1.17339,-0.0123 -0.7748,-0.0275 z m -12.98372,-0.14989 c -0.02713,-0.0707 -0.02596,-0.15193 0.0026,-0.1805 0.02857,-0.0286 0.05195,0.0115 0.05195,0.089 0,0.13012 0.217604,0.13921 2.824528,0.11801 1.553492,-0.0126 2.807122,0.005 2.785862,0.0395 -0.0213,0.0344 -1.29348,0.0625 -2.827144,0.0625 -2.436432,0 -2.794703,-0.0162 -2.837805,-0.12855 z m -7.212986,-0.3469 c 0.103626,-0.0199 0.253579,-0.0192 0.333227,0.002 0.07965,0.0208 -0.0051,0.0371 -0.188411,0.0362 -0.183275,-9.3e-4 -0.248442,-0.018 -0.144816,-0.0379 z m 19.456996,-0.60754 c 0,-0.29782 0.0151,-0.41965 0.0336,-0.27074 0.0185,0.14891 0.0185,0.39258 0,0.54149 -0.0185,0.14891 -0.0336,0.0271 -0.0336,-0.27075 z m -16.514826,-0.29851 c 0.004,-0.097 0.02374,-0.11679 0.05033,-0.0503 0.02407,0.0601 0.02111,0.13199 -0.0066,0.15967 -0.02768,0.0277 -0.04737,-0.0215 -0.04375,-0.10934 z m 23.354706,-1.95077 c 0,-0.9851 0.0121,-1.3881 0.0268,-0.89555 0.0147,0.49255 0.0147,1.29855 0,1.7911 -0.0147,0.49255 -0.0268,0.0896 -0.0268,-0.89555 z m -28.28701,1.10382 c -0.103622,-0.13213 -0.100676,-0.13508 0.03145,-0.0315 0.138769,0.10883 0.182899,0.17724 0.114334,0.17724 -0.0173,0 -0.0829,-0.0656 -0.145787,-0.14578 z m 9.107306,-0.47902 c 0.0017,-0.13745 0.02037,-0.1836 0.04149,-0.10255 0.02112,0.0811 0.01973,0.19352 -0.0031,0.24992 -0.02282,0.0564 -0.0401,-0.01 -0.0384,-0.14737 z m -4.091696,-0.17355 c 0.004,-0.097 0.02374,-0.11679 0.05033,-0.0503 0.02406,0.0601 0.02111,0.13199 -0.0066,0.15968 -0.02768,0.0277 -0.04737,-0.0215 -0.04375,-0.10934 z m 9.85096,-2.32565 c 3.7e-4,-0.32073 0.0154,-0.44173 0.0335,-0.26889 0.018,0.17284 0.0177,0.43526 -6.7e-4,0.58315 -0.0184,0.14789 -0.0332,0.006 -0.0328,-0.31426 z m -9.761076,0.12496 c 0,-0.11455 0.01891,-0.16141 0.04202,-0.10414 0.02311,0.0573 0.02311,0.151 0,0.20827 -0.02311,0.0573 -0.04202,0.0104 -0.04202,-0.10413 z m 3.918505,-0.20827 c 0.0017,-0.13745 0.02037,-0.1836 0.04149,-0.10255 0.02112,0.0811 0.01973,0.19352 -0.0031,0.24992 -0.02282,0.0564 -0.0401,-0.01 -0.0384,-0.14737 z m -3.841775,-1.58977 c 0.004,-0.097 0.02374,-0.11679 0.05033,-0.0503 0.02407,0.0601 0.02111,0.13199 -0.0066,0.15967 -0.02768,0.0277 -0.04737,-0.0215 -0.04375,-0.10934 z m 16.348216,-0.70117 c 0,-0.29782 0.0151,-0.41965 0.0336,-0.27074 0.0185,0.14891 0.0185,0.39258 0,0.54149 -0.0185,0.14891 -0.0336,0.0271 -0.0336,-0.27075 z m -12.589747,-0.29157 c 0.0017,-0.13746 0.02037,-0.1836 0.04149,-0.10255 0.02112,0.0811 0.01973,0.19352 -0.0031,0.24992 -0.02282,0.0564 -0.0401,-0.01 -0.0384,-0.14737 z m -0.08331,-2.58251 c 0.0017,-0.13746 0.02037,-0.1836 0.04149,-0.10255 0.02112,0.0811 0.01973,0.19352 -0.0031,0.24992 -0.02282,0.0564 -0.0401,-0.01 -0.0384,-0.14737 z m 5.926547,-1.95771 c 0,-0.34364 0.0147,-0.48422 0.0327,-0.3124 0.018,0.17182 0.018,0.45298 0,0.6248 -0.018,0.17182 -0.0327,0.0312 -0.0327,-0.3124 z m 6.83049,-1.62448 c 3.7e-4,-0.32073 0.0154,-0.44173 0.0335,-0.26889 0.018,0.17284 0.0177,0.43526 -6.7e-4,0.58315 -0.0184,0.14789 -0.0332,0.006 -0.0328,-0.31426 z m -8.9605,-5.10044 c 0.14973,-0.0185 0.37466,-0.0181 0.49984,8.5e-4 0.12518,0.019 0.003,0.0342 -0.27224,0.0337 -0.27491,-4.6e-4 -0.37733,-0.016 -0.2276,-0.0346 z m 5.50196,-0.57968 c 0.0601,-0.0241 0.13199,-0.0211 0.15968,0.007 0.0277,0.0277 -0.0215,0.0474 -0.10934,0.0438 -0.097,-0.004 -0.11679,-0.0237 -0.0503,-0.0503 z m 8.82681,-0.25338 c 0.14973,-0.0185 0.37466,-0.0182 0.49984,8.5e-4 0.12518,0.019 0.003,0.0342 -0.27224,0.0337 -0.27491,-4.7e-4 -0.37733,-0.016 -0.2276,-0.0346 z m -4.9151,-0.0833 c 0.14973,-0.0185 0.37466,-0.0182 0.49984,8.5e-4 0.12518,0.019 0.003,0.0342 -0.27224,0.0337 -0.27491,-4.7e-4 -0.37733,-0.016 -0.2276,-0.0346 z m 14.33747,-3.50099 c -0.10362,-0.13213 -0.10067,-0.13508 0.0315,-0.0315 0.0802,0.0629 0.14578,0.12848 0.14578,0.14578 0,0.0686 -0.0684,0.0244 -0.17724,-0.11433 z m -2.08267,-2.24928 c -0.10362,-0.13213 -0.10067,-0.13508 0.0315,-0.0315 0.13876,0.10883 0.18289,0.17724 0.11433,0.17724 -0.0173,0 -0.0829,-0.0656 -0.14579,-0.14578 z m -42.792817,-0.81224 c 0.0017,-0.13746 0.02037,-0.18361 0.04149,-0.10255 0.02112,0.0811 0.01973,0.19352 -0.0031,0.24992 -0.02282,0.0564 -0.0401,-0.01 -0.0384,-0.14737 z m 40.710147,-1.43705 c -0.10362,-0.13213 -0.10067,-0.13507 0.0315,-0.0315 0.13876,0.10883 0.1829,0.17724 0.11433,0.17724 -0.0173,0 -0.0829,-0.0656 -0.14579,-0.14579 z m -16.29817,-0.18744 c 0,-0.16036 0.0171,-0.22597 0.0381,-0.14578 0.0209,0.0802 0.0209,0.21139 0,0.29157 -0.021,0.0802 -0.0381,0.0146 -0.0381,-0.14579 z m 14.2155,-2.06184 c -0.10362,-0.13213 -0.10067,-0.13508 0.0315,-0.0314 0.13877,0.10883 0.1829,0.17724 0.11433,0.17724 -0.0173,0 -0.0829,-0.0656 -0.14579,-0.14579 z m -14.13219,-1.02051 c 0,-0.16036 0.0171,-0.22597 0.0381,-0.14578 0.021,0.0802 0.021,0.21139 0,0.29157 -0.0209,0.0802 -0.0381,0.0146 -0.0381,-0.14579 z m 12.04952,-1.22877 c -0.10362,-0.13213 -0.10067,-0.13508 0.0315,-0.0315 0.13877,0.10883 0.1829,0.17724 0.11433,0.17724 -0.0173,0 -0.0829,-0.0656 -0.14579,-0.14578 z m -11.96622,-1.93689 c 0,-0.16036 0.0171,-0.22597 0.0381,-0.14578 0.0209,0.0802 0.0209,0.21139 0,0.29157 -0.021,0.0802 -0.0381,0.0146 -0.0381,-0.14579 z m 9.88356,-0.3124 c -0.10363,-0.13213 -0.10068,-0.13507 0.0315,-0.0315 0.13877,0.10883 0.1829,0.17724 0.11433,0.17724 -0.0173,0 -0.0829,-0.0656 -0.14578,-0.14579 z m -12.5687,-0.3022 c 0,-0.0173 0.0656,-0.0829 0.14578,-0.14578 0.13213,-0.10363 0.13508,-0.10068 0.0315,0.0314 -0.10883,0.13877 -0.17724,0.1829 -0.17724,0.11433 z m 11.48571,-0.86409 c -0.10363,-0.13213 -0.10068,-0.13508 0.0315,-0.0315 0.13877,0.10883 0.1829,0.17724 0.11433,0.17724 -0.0173,0 -0.0829,-0.0656 -0.14578,-0.14579 z m -0.99968,-1.08299 c -0.10363,-0.13213 -0.10068,-0.13507 0.0314,-0.0314 0.13877,0.10883 0.1829,0.17724 0.11433,0.17724 -0.0173,0 -0.0829,-0.0656 -0.14578,-0.14579 z m -1.08299,-1.16629 c -0.10362,-0.13213 -0.10068,-0.13508 0.0315,-0.0315 0.13877,0.10883 0.1829,0.17724 0.11433,0.17724 -0.0173,0 -0.0829,-0.0656 -0.14578,-0.14578 z m -5.7792,-0.52067 c 0.0829,-0.0916 0.16953,-0.16661 0.19244,-0.16661 0.0229,0 -0.0262,0.075 -0.10913,0.16661 -0.0829,0.0916 -0.16953,0.16661 -0.19244,0.16661 -0.0229,0 0.0262,-0.075 0.10913,-0.16661 z m 3.69653,-1.72862 c -0.10362,-0.13213 -0.10068,-0.13507 0.0315,-0.0315 0.13877,0.10883 0.1829,0.17724 0.11434,0.17724 -0.0173,0 -0.0829,-0.0656 -0.14579,-0.14579 z m -6.15408,0.031 c 0,-0.0173 0.0656,-0.0829 0.14579,-0.14579 0.13213,-0.10362 0.13508,-0.10067 0.0315,0.0315 -0.10883,0.13876 -0.17724,0.18289 -0.17724,0.11433 z m 4.33853,-3.932561 c 0.004,-0.09705 0.0237,-0.116788 0.0503,-0.05033 0.0241,0.06014 0.0211,0.131989 -0.007,0.159671 -0.0277,0.02768 -0.0474,-0.02152 -0.0438,-0.10934 z"
         id="path14" /><path
         style="fill:#02cbfe"
         d="m 118.63558,142.26845 c -0.8591,-0.61873 -1.562,-1.15347 -1.562,-1.18832 0,-0.0577 2.8831,-2.21872 2.96011,-2.21872 0.061,0 3.28563,2.33201 3.28301,2.37425 -0.005,0.0807 -2.91383,2.16592 -3.01579,2.16185 -0.0568,-0.002 -0.80622,-0.51034 -1.66533,-1.12906 z m -35.172222,-0.11223 c -0.868322,-0.63037 -1.587685,-1.17972 -1.598584,-1.22078 -0.02704,-0.10188 2.811943,-2.15851 2.97158,-2.15269 0.131879,0.005 3.242018,2.20513 3.244865,2.29564 0.0017,0.0528 -2.955221,2.24614 -3.008878,2.23194 -0.01662,-0.004 -0.74066,-0.52374 -1.608983,-1.15411 z"
         id="path13" /><path
         style="fill:#fe5f5f"
         d="m 112.68261,142.17348 c 0.31119,-0.0161 0.79853,-0.016 1.08299,2.7e-4 0.28446,0.0162 0.0299,0.0294 -0.56578,0.0292 -0.59565,-1.5e-4 -0.82839,-0.0134 -0.51721,-0.0295 z m -3.50216,-0.31302 c 9.2e-4,-0.18328 0.018,-0.24844 0.0379,-0.14482 0.0199,0.10363 0.0192,0.25358 -0.002,0.33323 -0.0208,0.0797 -0.0372,-0.005 -0.0362,-0.18841 z m 6.84057,-0.49984 c 2.2e-4,-0.45819 0.0142,-0.635 0.0311,-0.39292 0.0169,0.24209 0.0167,0.61697 -4e-4,0.83307 -0.0171,0.2161 -0.0309,0.018 -0.0307,-0.44015 z m -19.08835,0.20826 c 0,-0.16036 0.01714,-0.22597 0.0381,-0.14578 0.02095,0.0802 0.02095,0.21139 0,0.29157 -0.02095,0.0802 -0.0381,0.0146 -0.0381,-0.14579 z m -8.027405,-0.3957 c -0.103622,-0.13213 -0.100676,-0.13508 0.03145,-0.0315 0.138768,0.10883 0.182899,0.17724 0.114334,0.17724 -0.0173,0 -0.0829,-0.0656 -0.145787,-0.14578 z m 3.766009,-0.65257 c 0.004,-0.097 0.02374,-0.11679 0.05033,-0.0503 0.02407,0.0601 0.02111,0.13199 -0.0066,0.15967 -0.02768,0.0277 -0.04737,-0.0215 -0.04375,-0.10934 z m 4.178089,-1.53424 c 0,-0.16036 0.01714,-0.22597 0.0381,-0.14578 0.02095,0.0802 0.02095,0.21139 0,0.29157 -0.02095,0.0802 -0.0381,0.0146 -0.0381,-0.14579 z m -4.085119,-0.0417 c 0.0017,-0.13746 0.02037,-0.1836 0.04149,-0.10255 0.02112,0.0811 0.01973,0.19352 -0.0031,0.24992 -0.02282,0.0564 -0.0401,-0.01 -0.0384,-0.14737 z m 9.843526,-0.74976 c -2.5e-4,-0.41237 0.0138,-0.59157 0.0313,-0.39822 0.0175,0.19335 0.0177,0.53074 4.6e-4,0.74976 -0.0172,0.21902 -0.0315,0.0608 -0.0318,-0.35154 z m -9.760219,-1.49952 c 0.0017,-0.13746 0.02037,-0.18361 0.04149,-0.10255 0.02112,0.081 0.01973,0.19352 -0.0031,0.24992 -0.02282,0.0564 -0.0401,-0.01 -0.0384,-0.14737 z m 3.918505,-0.29158 c 0,-0.16036 0.01714,-0.22597 0.0381,-0.14578 0.02095,0.0802 0.02095,0.21139 0,0.29157 -0.02095,0.0802 -0.0381,0.0146 -0.0381,-0.14579 z m 12.505244,-0.7081 c 3.1e-4,-0.36655 0.0149,-0.50614 0.0326,-0.3102 0.0176,0.19594 0.0174,0.49584 -5.5e-4,0.66645 -0.0179,0.17061 -0.0323,0.0103 -0.032,-0.35625 z m -16.350106,-0.6734 c 0.004,-0.097 0.02374,-0.11679 0.05033,-0.0503 0.02407,0.0601 0.02111,0.13199 -0.0066,0.15967 -0.02768,0.0277 -0.04737,-0.0215 -0.04375,-0.10934 z m 3.761555,-1.20101 c 0,-0.16036 0.01714,-0.22597 0.0381,-0.14578 0.02095,0.0802 0.02095,0.21139 0,0.29157 -0.02095,0.0802 -0.0381,0.0146 -0.0381,-0.14579 z m -3.652192,-0.99968 c 0,-0.61855 0.01311,-0.87159 0.02914,-0.56232 0.01603,0.30928 0.01603,0.81537 0,1.12464 -0.01603,0.30928 -0.02914,0.0562 -0.02914,-0.56232 z m 9.493453,-1.83275 c 0,-0.38946 0.0143,-0.54878 0.0319,-0.35405 0.0175,0.19473 0.0175,0.51338 0,0.70811 -0.0175,0.19473 -0.0319,0.0354 -0.0319,-0.35406 z m -5.924567,0.24992 c 0,-0.16036 0.01714,-0.22597 0.0381,-0.14578 0.02095,0.0802 0.02095,0.21139 0,0.29157 -0.02095,0.0802 -0.0381,0.0146 -0.0381,-0.14579 z m 12.754617,-1.99936 c 0,-0.34364 0.0147,-0.48422 0.0327,-0.3124 0.018,0.17182 0.018,0.45298 0,0.6248 -0.018,0.17182 -0.0327,0.0312 -0.0327,-0.3124 z m -16.266253,0.36794 c 0.004,-0.097 0.02374,-0.11679 0.05033,-0.0503 0.02406,0.0601 0.02111,0.13199 -0.0066,0.15967 -0.02768,0.0277 -0.04737,-0.0215 -0.04376,-0.10934 z m 16.334033,-6.84012 c -0.007,-0.32949 0.0156,-0.61649 0.05,-0.6378 0.0344,-0.0213 0.0518,0.15455 0.0387,0.39079 -0.0425,0.76604 -0.0759,0.85926 -0.0887,0.24701 z m 4.50806,-0.58537 c 0.12663,-0.0191 0.31407,-0.0186 0.41653,10e-4 0.10246,0.0198 -0.001,0.0354 -0.23024,0.0348 -0.22909,-6.2e-4 -0.31292,-0.0168 -0.18629,-0.0359 z m -7.90701,-2.1062 c 0,-0.38945 0.0143,-0.54878 0.0319,-0.35405 0.0175,0.19473 0.0175,0.51338 0,0.70811 -0.0175,0.19473 -0.0319,0.0354 -0.0319,-0.35406 z m 18.95421,-0.56232 c -0.10362,-0.13213 -0.10068,-0.13507 0.0315,-0.0314 0.0802,0.0629 0.14579,0.12849 0.14579,0.14579 0,0.0686 -0.0684,0.0244 -0.17724,-0.11434 z m -2.08267,-2.24928 c -0.10362,-0.13213 -0.10068,-0.13507 0.0315,-0.0314 0.13877,0.10883 0.1829,0.17724 0.11434,0.17724 -0.0173,0 -0.0829,-0.0656 -0.14579,-0.14579 z m -43.618298,-1.14547 c 6.26e-4,-0.22909 0.0168,-0.31292 0.03595,-0.18629 0.01915,0.12663 0.01864,0.31407 -0.0011,0.41653 -0.01977,0.10246 -0.03544,-0.001 -0.03482,-0.23024 z m 41.535628,-1.10381 c -0.10362,-0.13213 -0.10067,-0.13508 0.0314,-0.0314 0.0802,0.0629 0.14579,0.12848 0.14579,0.14578 0,0.0686 -0.0684,0.0244 -0.17724,-0.11433 z m -17.12956,-0.56232 c 9.2e-4,-0.18328 0.018,-0.24844 0.0379,-0.14482 0.0199,0.10363 0.0192,0.25358 -0.002,0.33323 -0.0208,0.0797 -0.0371,-0.005 -0.0362,-0.18841 z m 15.04689,-1.68697 c -0.10362,-0.13212 -0.10067,-0.13507 0.0315,-0.0314 0.13876,0.10883 0.18289,0.17724 0.11433,0.17724 -0.0173,0 -0.0829,-0.0656 -0.14579,-0.14579 z m -14.96358,-1.39538 c 9.2e-4,-0.18328 0.018,-0.24845 0.0379,-0.14482 0.0199,0.10363 0.0192,0.25358 -0.002,0.33323 -0.0208,0.0797 -0.0372,-0.005 -0.0362,-0.18841 z m 12.88091,-0.8539 c -0.10362,-0.13213 -0.10067,-0.13507 0.0315,-0.0314 0.13876,0.10883 0.18289,0.17724 0.11433,0.17724 -0.0173,0 -0.0829,-0.0656 -0.14579,-0.14579 z m -12.79761,-2.31176 c 9.3e-4,-0.18328 0.018,-0.24844 0.0379,-0.14482 0.0199,0.10363 0.0192,0.25358 -0.002,0.33323 -0.0209,0.0796 -0.0371,-0.005 -0.0362,-0.18841 z m 10.71494,0.0625 c -0.10362,-0.13213 -0.10067,-0.13508 0.0315,-0.0314 0.13876,0.10883 0.18289,0.17724 0.11433,0.17724 -0.0173,0 -0.0829,-0.0656 -0.14579,-0.14579 z m -34.27011,-1.85358 c 0.3644,-0.36655 0.681289,-0.66645 0.704199,-0.66645 0.02291,0 -0.256492,0.2999 -0.620892,0.66645 -0.3644,0.36655 -0.68129,0.66646 -0.704199,0.66646 -0.02291,0 0.256492,-0.29991 0.620892,-0.66646 z m 1.374562,-1.28105 c 0,-0.0173 0.0656,-0.0829 0.145787,-0.14579 0.132129,-0.10362 0.135075,-0.10067 0.03145,0.0314 -0.10883,0.13877 -0.17724,0.1829 -0.17724,0.11434 z m 29.729898,-0.28095 c -0.10363,-0.13213 -0.10068,-0.13508 0.0315,-0.0315 0.0802,0.0629 0.14579,0.12849 0.14579,0.14578 0,0.0686 -0.0684,0.0244 -0.17724,-0.11433 z m -25.413566,-2.1604 c 0.06014,-0.0241 0.13199,-0.0211 0.159672,0.007 0.02768,0.0277 -0.02152,0.0474 -0.10934,0.0438 -0.09705,-0.004 -0.116788,-0.0237 -0.05033,-0.0503 z m 23.330896,-0.0889 c -0.10363,-0.13213 -0.10068,-0.13508 0.0314,-0.0315 0.13877,0.10883 0.1829,0.17724 0.11433,0.17724 -0.0173,0 -0.0829,-0.0656 -0.14578,-0.14578 z m -4.94613,-1.52035 c 0.0829,-0.0916 0.16953,-0.16661 0.19244,-0.16661 0.0229,0 -0.0262,0.075 -0.10913,0.16661 -0.0829,0.0916 -0.16953,0.16661 -0.19244,0.16661 -0.0229,0 0.0262,-0.075 0.10913,-0.16661 z M 102.91143,99.374 c 0.10761,-0.114547 0.2144,-0.208267 0.23731,-0.208267 0.0229,0 -0.0464,0.09372 -0.154,0.208267 -0.10761,0.114547 -0.2144,0.208267 -0.23731,0.208267 -0.0229,0 0.0464,-0.09372 0.154,-0.208267 z m -2.06026,-1.76552 c 0.0811,-0.02112 0.19352,-0.01973 0.24992,0.0031 0.0564,0.02282 -0.01,0.0401 -0.14737,0.0384 -0.13746,-0.0017 -0.1836,-0.02037 -0.10255,-0.04149 z m 6.12147,-0.580589 c 0.0573,-0.02311 0.15099,-0.02311 0.20826,0 0.0573,0.02311 0.0104,0.04202 -0.10413,0.04202 -0.11455,0 -0.16141,-0.01891 -0.10413,-0.04202 z"
         id="path12" /><path
         style="fill:#fe2e2e"
         d="m 114.68155,142.17369 c 0.26514,-0.0166 0.6775,-0.0164 0.91638,3.4e-4 0.23887,0.0168 0.0219,0.0303 -0.48206,0.0302 -0.504,-1.9e-4 -0.69945,-0.0139 -0.43432,-0.0305 z m -23.077429,-0.57923 c 0.08105,-0.0211 0.193519,-0.0197 0.24992,0.003 0.0564,0.0228 -0.0099,0.0401 -0.147372,0.0384 -0.137456,-0.002 -0.183603,-0.0204 -0.102548,-0.0415 z m -2.448935,-0.17136 c -0.103623,-0.13213 -0.100677,-0.13508 0.03145,-0.0315 0.08018,0.0629 0.145787,0.12849 0.145787,0.14579 0,0.0686 -0.06841,0.0244 -0.17724,-0.11433 z m 7.777484,-0.35406 c 0,-0.16036 0.01714,-0.22597 0.0381,-0.14578 0.02095,0.0802 0.02095,0.21139 0,0.29157 -0.02095,0.0802 -0.0381,0.0146 -0.0381,-0.14579 z m -8.732801,-0.68728 -0.158699,-0.18744 0.187441,0.1587 c 0.176147,0.14914 0.225365,0.21618 0.158698,0.21618 -0.01581,0 -0.100156,-0.0844 -0.18744,-0.18744 z m 4.477981,-0.14578 c 0,-0.11455 0.01891,-0.16141 0.04202,-0.10414 0.02311,0.0573 0.02311,0.151 0,0.20827 -0.02311,0.0573 -0.04202,0.0104 -0.04202,-0.10413 z m 9.92891,-0.70811 c 3e-4,-0.36655 0.0149,-0.50614 0.0326,-0.3102 0.0176,0.19594 0.0174,0.49585 -5.5e-4,0.66645 -0.0179,0.17061 -0.0323,0.0103 -0.032,-0.35625 z m -15.284323,-0.0208 c -0.103623,-0.13213 -0.100677,-0.13507 0.03145,-0.0314 0.138768,0.10883 0.182898,0.17724 0.114333,0.17724 -0.0173,0 -0.0829,-0.0656 -0.145786,-0.14579 z m -4.793398,-0.30873 c 0,-0.0667 0.03185,-0.10161 0.07078,-0.0776 0.03893,0.0241 0.04921,0.0786 0.02285,0.12129 -0.06736,0.109 -0.09363,0.0967 -0.09363,-0.0437 z m 3.96033,-0.44103 c -0.103623,-0.13213 -0.100676,-0.13508 0.03145,-0.0315 0.08018,0.0629 0.145787,0.12849 0.145787,0.14578 0,0.0686 -0.06841,0.0244 -0.17724,-0.11433 z m 6.274875,-0.22909 c 0.0017,-0.13746 0.02037,-0.18361 0.04149,-0.10255 0.02112,0.0811 0.01973,0.19352 -0.0031,0.24992 -0.02282,0.0564 -0.0401,-0.01 -0.0384,-0.14737 z m 4.085119,-0.0417 c 0,-0.16036 0.01714,-0.22597 0.0381,-0.14578 0.02095,0.0802 0.02095,0.21139 0,0.29157 -0.02095,0.0802 -0.0381,0.0146 -0.0381,-0.14579 z m 12.421387,-1.58283 c 0,-0.34364 0.0147,-0.48422 0.0327,-0.3124 0.018,0.17182 0.018,0.45298 0,0.62481 -0.018,0.17182 -0.0327,0.0312 -0.0327,-0.31241 z m -16.420112,-0.66645 c 0,-0.16037 0.01714,-0.22597 0.0381,-0.14579 0.02095,0.0802 0.02095,0.21139 0,0.29158 -0.02095,0.0802 -0.0381,0.0146 -0.0381,-0.14579 z m 3.915418,-0.33323 c 0,-0.16036 0.01714,-0.22597 0.0381,-0.14578 0.02095,0.0802 0.02095,0.21139 0,0.29157 -0.02095,0.0802 -0.0381,0.0146 -0.0381,-0.14579 z m -3.844862,-1.13158 c 0.004,-0.097 0.02374,-0.11679 0.05033,-0.0503 0.02407,0.0601 0.02111,0.13199 -0.0066,0.15967 -0.02768,0.0277 -0.04737,-0.0215 -0.04375,-0.10934 z m 3.761555,-1.45093 c 0,-0.16036 0.01714,-0.22597 0.0381,-0.14578 0.02095,0.0802 0.02095,0.21139 0,0.29157 -0.02095,0.0802 -0.0381,0.0146 -0.0381,-0.14579 z m 5.841261,-0.99968 c 0,-0.38946 0.0143,-0.54878 0.0319,-0.35405 0.0175,0.19473 0.0175,0.51338 0,0.70811 -0.0175,0.19473 -0.0319,0.0354 -0.0319,-0.35406 z m -9.502259,-0.95803 c 6.25e-4,-0.22909 0.0168,-0.31292 0.03595,-0.18629 0.01915,0.12663 0.01864,0.31407 -0.0011,0.41653 -0.01977,0.10247 -0.03544,-0.001 -0.03482,-0.23024 z m 3.564941,-0.50678 c 0.004,-0.097 0.02374,-0.11679 0.05033,-0.0503 0.02407,0.0601 0.02111,0.13199 -0.0066,0.15967 -0.02768,0.0277 -0.04737,-0.0215 -0.04375,-0.10934 z m 12.767368,-0.45124 c 0,-0.34364 0.0147,-0.48422 0.0327,-0.3124 0.018,0.17182 0.018,0.45298 0,0.6248 -0.018,0.17182 -0.0327,0.0312 -0.0327,-0.3124 z m -10.207055,0.0264 c 0.06014,-0.0241 0.13199,-0.0211 0.159672,0.007 0.02768,0.0277 -0.02152,0.0474 -0.10934,0.0438 -0.09705,-0.004 -0.116788,-0.0237 -0.05033,-0.0503 z m -5.966227,-2.06741 c 0.0017,-0.13746 0.02037,-0.1836 0.04149,-0.10255 0.02112,0.0811 0.01973,0.19352 -0.0031,0.24992 -0.02282,0.0564 -0.0401,-0.01 -0.0384,-0.14737 z m 22.762632,-4.08203 c -5e-5,-1.14547 0.0117,-1.62563 0.0261,-1.06701 0.0144,0.55861 0.0144,1.49581 9e-5,2.08267 -0.0143,0.58685 -0.0261,0.12981 -0.0262,-1.01566 z m -6.50549,-0.33323 c 3e-4,-0.36655 0.0149,-0.50614 0.0325,-0.3102 0.0176,0.19594 0.0174,0.49585 -5.5e-4,0.66646 -0.0179,0.17061 -0.0323,0.0103 -0.032,-0.35626 z m 3.5328,-1.76805 c 0.14891,-0.0185 0.39259,-0.0185 0.5415,0 0.14891,0.0185 0.0271,0.0336 -0.27075,0.0336 -0.29782,0 -0.41966,-0.0151 -0.27075,-0.0336 z m -7.22686,-1.13749 c 0,-0.0173 0.0656,-0.0829 0.14579,-0.14578 0.13213,-0.10363 0.13507,-0.10068 0.0314,0.0315 -0.10883,0.13877 -0.17724,0.1829 -0.17724,0.11433 z m 18.94438,-1.82212 -0.1587,-0.18744 0.18744,0.1587 c 0.17615,0.14914 0.22536,0.21618 0.1587,0.21618 -0.0158,0 -0.10016,-0.0844 -0.18744,-0.18744 z m -0.99968,-1.08299 -0.1587,-0.18744 0.18744,0.1587 c 0.17615,0.14914 0.22536,0.21618 0.1587,0.21618 -0.0158,0 -0.10016,-0.0844 -0.18744,-0.18744 z m -1.08299,-1.16629 -0.1587,-0.18744 0.18744,0.1587 c 0.10309,0.0873 0.18744,0.17163 0.18744,0.18744 0,0.0667 -0.067,0.0174 -0.21618,-0.1587 z m -0.99968,-1.08299 -0.1587,-0.18744 0.18744,0.1587 c 0.17615,0.14913 0.22536,0.21618 0.1587,0.21618 -0.0158,0 -0.10016,-0.0844 -0.18744,-0.18744 z m -17.92369,-0.8539 c 9.2e-4,-0.18327 0.018,-0.24844 0.0379,-0.14481 0.0199,0.10363 0.0192,0.25358 -0.002,0.33323 -0.0208,0.0796 -0.0371,-0.005 -0.0362,-0.18842 z m 16.8407,-0.3124 -0.1587,-0.18744 0.18744,0.1587 c 0.17615,0.14914 0.22537,0.21618 0.1587,0.21618 -0.0158,0 -0.10016,-0.0843 -0.18744,-0.18744 z m -41.174134,-0.56232 c 0,-0.11454 0.01891,-0.1614 0.04202,-0.10413 0.02311,0.0573 0.02311,0.15099 0,0.20827 -0.02311,0.0573 -0.04202,0.0104 -0.04202,-0.10414 z m 40.134404,-0.56232 -0.20196,-0.22909 0.2291,0.20196 c 0.126,0.11108 0.22909,0.21417 0.22909,0.22909 0,0.0653 -0.0675,0.0122 -0.25623,-0.20196 z m -1.04294,-1.12464 -0.1587,-0.18744 0.18744,0.1587 c 0.10309,0.0873 0.18744,0.17163 0.18744,0.18744 0,0.0667 -0.067,0.0174 -0.21618,-0.1587 z m -14.6764,-0.56232 c 0,-0.16037 0.0171,-0.22597 0.0381,-0.14579 0.021,0.0802 0.021,0.21139 0,0.29158 -0.0209,0.0802 -0.0381,0.0146 -0.0381,-0.14579 z m 13.63667,-0.56232 -0.20196,-0.22909 0.2291,0.20196 c 0.21412,0.18876 0.26729,0.25622 0.20196,0.25622 -0.0149,0 -0.11802,-0.10309 -0.2291,-0.22909 z m -1.04294,-1.12464 -0.1587,-0.18744 0.18744,0.1587 c 0.10309,0.0873 0.18744,0.17163 0.18744,0.18744 0,0.0667 -0.067,0.0174 -0.21618,-0.1587 z m -38.125763,-0.87324 c 0.19473,-0.0175 0.513378,-0.0175 0.708108,0 0.194729,0.0175 0.0354,0.0319 -0.354054,0.0319 -0.389459,0 -0.548783,-0.0143 -0.354054,-0.0319 z m 37.086043,-0.2514 -0.20197,-0.2291 0.2291,0.20196 c 0.126,0.11108 0.22909,0.21418 0.22909,0.2291 0,0.0653 -0.0675,0.0122 -0.25622,-0.20196 z m -11.46903,-0.3124 c 9.3e-4,-0.18328 0.018,-0.24845 0.0379,-0.14482 0.0199,0.10363 0.0192,0.25358 -0.002,0.33323 -0.0209,0.0797 -0.0371,-0.005 -0.0362,-0.18841 z m 10.42608,-0.81224 -0.1587,-0.18745 0.18744,0.1587 c 0.17615,0.14914 0.22537,0.21619 0.1587,0.21619 -0.0158,0 -0.10016,-0.0844 -0.18744,-0.18744 z m -1.03972,-1.12465 -0.20197,-0.22909 0.2291,0.20196 c 0.126,0.11108 0.22909,0.21417 0.22909,0.2291 0,0.0653 -0.0675,0.0122 -0.25622,-0.20197 z m -1.04295,-1.12464 -0.1587,-0.18744 0.18744,0.1587 c 0.1031,0.0873 0.18744,0.17163 0.18744,0.18744 0,0.0667 -0.067,0.0174 -0.21618,-0.1587 z m -30.773938,-0.34385 c 0,-0.0173 0.0656,-0.0829 0.145786,-0.14579 0.13213,-0.10362 0.135076,-0.10067 0.03145,0.0314 -0.108829,0.13877 -0.177239,0.1829 -0.177239,0.11434 z m 29.690948,-0.82244 -0.1587,-0.18744 0.18744,0.1587 c 0.17615,0.14913 0.22537,0.21618 0.1587,0.21618 -0.0158,0 -0.10015,-0.0844 -0.18744,-0.18744 z m -0.99968,-1.08299 -0.1587,-0.18744 0.18744,0.1587 c 0.17615,0.14913 0.22537,0.21618 0.1587,0.21618 -0.0158,0 -0.10015,-0.0844 -0.18744,-0.18744 z m -25.04139,-0.70254 c 0.06014,-0.0241 0.131989,-0.0211 0.159671,0.007 0.02768,0.0277 -0.02152,0.0474 -0.10934,0.0438 -0.09705,-0.004 -0.116788,-0.0237 -0.05033,-0.0503 z m 23.9584,-0.46376 -0.15869,-0.18744 0.18744,0.1587 c 0.17614,0.14914 0.22536,0.21618 0.15869,0.21618 -0.0158,0 -0.10015,-0.0843 -0.18744,-0.18744 z m -5.28206,-0.58838 c 0,-0.0143 0.12183,-0.13618 0.27075,-0.27075 l 0.27074,-0.24468 -0.24468,0.27075 c -0.22807,0.25237 -0.29681,0.30904 -0.29681,0.24468 z m 4.28238,-0.4946 -0.1587,-0.18744 0.18744,0.15869 c 0.17615,0.14914 0.22537,0.21619 0.1587,0.21619 -0.0158,0 -0.10015,-0.0844 -0.18744,-0.18744 z m -0.70019,-0.18744 c 0.10761,-0.11455 0.2144,-0.20827 0.23731,-0.20827 0.0229,0 -0.0464,0.0937 -0.154,0.20827 -0.10761,0.11454 -0.2144,0.20826 -0.23731,0.20826 -0.0229,0 0.0464,-0.0937 0.154,-0.20826 z m -2.62416,-0.29158 c 0.0829,-0.0916 0.16952,-0.16661 0.19243,-0.16661 0.0229,0 -0.0262,0.075 -0.10913,0.16661 -0.0829,0.0916 -0.16952,0.16662 -0.19243,0.16662 -0.0229,0 0.0262,-0.075 0.10913,-0.16662 z m -2.29094,-0.874719 c 0.15543,-0.160366 0.30135,-0.291574 0.32426,-0.291574 0.0229,0 -0.0855,0.131208 -0.24095,0.291574 -0.15544,0.160369 -0.30135,0.291569 -0.32426,0.291569 -0.0229,0 0.0855,-0.1312 0.24095,-0.291569 z m 1.07951,-1.062162 c 0.20427,-0.217639 0.38233,-0.395707 0.3957,-0.395707 0.0626,0 -0.004,0.0748 -0.3714,0.420015 l -0.3957,0.371399 z m 0.8782,-0.812241 c 0.0829,-0.09164 0.16953,-0.166614 0.19244,-0.166614 0.0229,0 -0.0262,0.07498 -0.10913,0.166614 -0.0829,0.09164 -0.16953,0.166614 -0.19244,0.166614 -0.0229,0 0.0262,-0.07498 0.10913,-0.166614 z"
         id="path11" /><path
         style="fill:#fe0000"
         d="m 109.24411,140.96491 c 0.003,-2.64262 0.24648,-18.74889 0.28395,-18.78636 0.0222,-0.0222 1.46057,-0.0127 3.19643,0.0212 l 3.15612,0.0615 0.0549,3.05178 c 0.0302,1.67847 0.0549,6.15391 0.055,9.94541 l 1.2e-4,6.89363 h -3.37392 -3.37392 z m -12.27602,0.0417 c -0.09557,-1.95011 -0.333857,-10.18283 -0.295836,-10.22085 0.02062,-0.0206 0.951975,0.16642 2.069672,0.41565 1.117697,0.24922 2.038104,0.44396 2.045344,0.43275 0.007,-0.0112 0.18392,-0.34006 0.39261,-0.73077 0.37183,-0.69615 0.38552,-0.74956 0.68299,-2.66582 0.39706,-2.5577 0.38486,-2.49692 0.50119,-2.49692 0.0772,0 0.1202,1.85889 0.18537,8.01827 0.0466,4.41006 0.0678,8.08389 0.0471,8.16407 -0.035,0.13516 -0.23953,0.14579 -2.807054,0.14579 h -2.769314 z m -8.260465,-0.10952 c -0.972648,-1.10314 -2.907754,-2.82596 -3.769233,-3.35574 -0.06574,-0.0404 -0.472505,0.22014 -1.110646,0.71147 -0.553801,0.42639 -1.073822,0.82338 -1.155601,0.88219 -0.14151,0.10176 -0.143647,0.0756 -0.04426,-0.5415 0.05744,-0.35663 0.281283,-1.22934 0.497433,-1.93935 0.660276,-2.16889 0.741678,-2.86847 0.746432,-6.41495 0.004,-2.94762 -0.0021,-3.0648 -0.196871,-3.82822 -0.29537,-1.15757 -1.082512,-2.91878 -1.523916,-3.40973 -0.791474,-0.88031 -1.750269,-2.52154 -1.904442,-3.25996 -0.05247,-0.25131 -0.269519,-0.96302 -0.48233,-1.58157 l -0.386931,-1.12464 0.01156,-1.87441 c 0.01019,-1.65135 0.03071,-1.91901 0.172512,-2.24928 0.272612,-0.63496 6.56e-4,-1.08299 -0.657376,-1.08299 -0.359977,0 -0.330793,-0.67464 0.04658,-1.07671 0.483133,-0.51476 1.149024,-1.7693 1.011902,-1.90642 -0.01931,-0.0193 -0.176787,0.0817 -0.34995,0.22441 -0.296124,0.24409 -0.355713,0.25952 -1.002371,0.25952 h -0.68753 l -0.200769,-0.39505 -0.200769,-0.39505 0.219713,-0.30566 c 0.163252,-0.22711 0.433383,-0.40925 1.051179,-0.70877 0.765864,-0.3713 0.936633,-0.50312 2.164422,-1.67076 0.733126,-0.69721 1.589379,-1.42823 1.902783,-1.62448 0.313404,-0.19625 0.930533,-0.5954 1.371396,-0.88699 l 0.80157,-0.53017 0.948707,-0.0801 0.948707,-0.0801 0.957908,-0.58913 c 1.276365,-0.78499 1.752831,-0.88998 4.059797,-0.89455 1.017437,-0.002 2.078311,-0.0561 2.749124,-0.14011 1.074859,-0.13463 1.110726,-0.146 2.240806,-0.71016 0.926325,-0.462446 1.405629,-0.774363 2.478013,-1.612621 1.000666,-0.782193 1.388946,-1.039278 1.569636,-1.039278 0.32477,0 0.45586,0.176538 0.38408,0.517255 -0.0654,0.31051 -0.5701,1.24066 -1.00123,1.845254 -0.24821,0.34809 -0.29538,0.48963 -0.28739,0.8624 0.004,0.1703 0.77226,-0.0248 1.41495,-0.35917 0.60648,-0.31553 0.89137,-0.549003 1.98512,-1.626882 0.70235,-0.692165 1.38651,-1.409643 1.52035,-1.594396 0.21774,-0.300583 0.24302,-0.314885 0.2404,-0.135974 -0.007,0.473662 -0.24932,1.246432 -0.58288,1.858254 -0.26885,0.493156 -0.62296,0.932692 -1.4094,1.749438 -0.89378,0.92823 -1.50367,1.67354 -1.50367,1.83757 0,0.0647 0.754,-0.24696 1.4783,-0.61113 0.49405,-0.2484 0.79355,-0.47766 1.24524,-0.95317 1.21561,-1.279714 2.27486,-2.798451 2.27486,-3.261642 0,-0.658527 0.2402,-0.8495 0.74205,-0.589981 0.22091,0.114236 0.23174,0.145557 0.19441,0.562321 -0.0245,0.273754 -0.22874,0.905929 -0.53781,1.664801 -0.38829,0.953391 -0.68225,1.505061 -1.33173,2.499201 -0.45839,0.70166 -1.0662,1.51942 -1.35068,1.81725 -0.28448,0.29782 -0.63241,0.7106 -0.77318,0.91729 -0.14077,0.2067 -0.49461,0.56108 -0.7863,0.78752 -0.2917,0.22644 -0.82016,0.69104 -1.17435,1.03244 -0.71635,0.69046 -0.68048,0.53935 -0.39828,1.67801 0.0852,0.34364 0.19789,1.0934 0.2505,1.66613 0.21748,2.36754 1.17869,6.24655 1.85788,7.49761 0.32719,0.60268 0.81132,1.31564 1.18795,1.74944 0.64246,0.74 0.28607,1.39443 -0.83785,1.53852 -0.77145,0.0989 -0.75448,0.0875 -0.95797,0.64695 -0.27996,0.76974 -0.62566,1.33667 -0.92169,1.51154 -0.17397,0.10276 -0.48933,0.16821 -0.94048,0.19516 -0.60389,0.0361 -0.81654,0.004 -1.928348,-0.29484 -0.687281,-0.18448 -1.357893,-0.37686 -1.490249,-0.42752 -0.132356,-0.0507 -0.254361,-0.0784 -0.271122,-0.0616 -0.119486,0.11948 0.514293,1.22201 1.05926,1.84269 0.135241,0.15403 0.66719,0.52891 1.182109,0.83306 0.51492,0.30415 1.07529,0.67358 1.24526,0.82095 l 0.30904,0.26794 -0.12063,1.08299 c -0.24606,2.20914 -0.30467,2.5314 -0.52118,2.8653 -0.29711,0.45822 -0.611042,0.62185 -1.062994,0.55407 -0.201185,-0.0302 -1.669706,-0.59371 -3.26338,-1.25233 l -2.897588,-1.19747 -0.05842,0.84812 c -0.03213,0.46647 -0.09761,2.14147 -0.145517,3.72221 -0.09059,2.98914 -0.204502,5.84491 -0.299595,7.51059 l -0.05543,0.971 -0.38338,0.27533 -0.383381,0.27532 -1.253194,0.0245 -1.253195,0.0245 z m 28.143585,-18.48147 c -0.32727,-0.0372 -0.46863,-0.0989 -0.58889,-0.25717 -0.13923,-0.18323 -8.18951,-17.66993 -8.84754,-19.21847 -0.19465,-0.45807 -0.2547,-0.72449 -0.2547,-1.12988 0,-0.48091 0.0234,-0.55289 0.25042,-0.7704 l 0.25042,-0.23991 0.40819,0.45342 c 0.2245,0.24939 4.24871,4.59586 8.94267,9.65883 6.56675,7.08298 8.50371,9.21921 8.401,9.2653 -0.28002,0.12565 -7.89988,2.31367 -8.01249,2.30076 -0.0651,-0.007 -0.31223,-0.0356 -0.54908,-0.0625 z m -12.19034,-0.16398 c -0.84262,-0.1186 -0.96059,-0.15491 -0.97933,-0.30145 -0.0117,-0.0916 0.0117,-0.21752 0.0521,-0.27974 0.082,-0.12627 1.24006,-0.42671 1.64873,-0.42772 0.19132,-4.7e-4 0.32233,-0.0707 0.47902,-0.25696 0.18915,-0.2248 0.21567,-0.33149 0.21567,-0.86782 0,-0.82734 -0.16357,-1.17619 -1.19154,-2.54137 -1.28677,-1.70885 -1.20456,-1.19592 -1.07485,-6.70619 0.0593,-2.52003 0.12536,-4.69694 0.14674,-4.83757 0.0316,-0.20801 0.15769,-0.33676 0.67611,-0.69055 0.35048,-0.23918 0.66272,-0.40528 0.69387,-0.36912 0.0311,0.0362 0.7594,3.51466 1.61833,7.72998 1.48168,7.27154 1.73082,8.3389 2.12836,9.11812 0.0927,0.18181 0.16864,0.34904 0.16864,0.37162 0,0.24191 -3.00665,0.28048 -4.58188,0.0588 z"
         id="path10" /></g></g></svg>
